<svg id="标语" xmlns="http://www.w3.org/2000/svg" width="917" height="244" viewBox="0 0 917 244">
  <defs>
    <style>
      .cls-1 {
        fill: #2682ea;
      }

      .cls-1, .cls-2 {
        fill-rule: evenodd;
      }

      .cls-2 {
        fill: none;
        stroke: #2682ea;
        stroke-width: 14px;
      }
    </style>
  </defs>
  <path id="LogSystem" class="cls-1" d="M331.375,144.341H294.5V60.966H280v95.625h51.375v-12.25Zm40.249-58.125c-18.25,0-32.5,13.125-32.5,36.375,0,22.25,13.625,35.375,31.5,35.375,15.5,0,32.25-10.625,32.25-36.375C402.874,100.466,390.5,86.216,371.624,86.216ZM388,121.966c0,13.75-6.5,25.125-17,25.125-10.625,0-17-11.375-17-24.875,0-11.875,4.75-25.125,17.125-25.125C383.249,97.091,388,110.591,388,121.966Zm73.875-34.25-0.625,9.25H461c-2.875-5.5-8.625-10.75-18.875-10.75-15,0-29.125,13-29.125,36.375,0,19.25,11.125,33.625,27.375,33.625,8.875,0,15.625-4.25,19.125-10.125h0.25v6.625c0,15.625-8,21.875-19.25,21.875a37.59,37.59,0,0,1-18.625-4.875l-3.25,11.25c5.375,3.25,13.75,5,21.75,5,32.625,0,33.75-25.375,33.75-39.125v-39.25c0-9.25.25-15,.625-19.875H461.874Zm-2.25,40.125c0,11.5-7.5,17.25-15,17.25-10.75,0-16.875-9.625-16.875-23.125,0-14.75,7-24.25,17-24.25,8.875,0,14.875,7.5,14.875,16.625v13.5Zm82-64A44.491,44.491,0,0,0,521.5,59.466c-19,0-31.125,11.375-31.125,26.5,0,13,9.625,21.625,23.875,27.375,11.375,4.75,16.25,9.75,16.25,17.875,0,8.625-6.375,14.5-17.75,14.5A41.779,41.779,0,0,1,492,140.091l-3.25,12.125c4.625,3.125,14.125,5.75,23.125,5.75,21.5,0,33.375-12,33.375-28,0-13.125-7.375-21.5-22.75-28.25-12.125-5.25-17.5-9.25-17.5-17.375,0-6.125,4.75-12.75,16.125-12.75a35.334,35.334,0,0,1,17,4.25Zm57.623,23.875-11.125,38.75c-1.25,4.625-2.625,9.75-3.625,13.75h-0.375c-1-4-2.375-9.25-3.75-13.75l-12.5-38.75H552l23.625,63.5a6.864,6.864,0,0,1,.75,3c0,1.875-5.375,15.875-20.375,21.25l3.75,12.25a36.542,36.542,0,0,0,16-8.875c8.25-8,14-20.75,22.125-43.375L614.5,87.716h-15.25Zm63,2.5a34.256,34.256,0,0,0-16.375-4c-14.5,0-23.875,9.125-23.875,20.625,0,8,5.375,14.875,17.625,19.75,8.25,3.5,11.125,6.375,11.125,11.625s-3.75,9-11.5,9a33.485,33.485,0,0,1-15.75-4.625l-3.25,10.75c4.625,2.75,11.5,4.625,18.75,4.625,15.625,0,25.75-7.875,25.75-21.125,0-10-6-16.25-17.375-20.875-8.375-3.625-11.5-6-11.5-10.75,0-4.625,3.5-8.375,10-8.375A25.143,25.143,0,0,1,659,100.716Zm19.5-2.5H672V98.591h9.75v35.625c0,9,1.625,14.75,5.125,18.5,3,3.375,7.875,5.25,13.625,5.25a31.972,31.972,0,0,0,11.25-1.625l-0.5-11.125a21.1,21.1,0,0,1-6.375.875c-6.125,0-8.75-4.125-8.75-12.625V98.591H712.5V87.716H696.12v-17l-14.375,4.5v12.5Zm91.249,55.875a42.969,42.969,0,0,1-17.375,3.25c-10.875,0-20.5-5.875-20.875-21.375h43.75a43.438,43.438,0,0,0,.375-6.125c0-17-7.75-33.125-27.125-33.125-19.5,0-31,16.375-31,36.875,0,21,12,34.875,32.75,34.875,9.375,0,17-1.875,21.875-4.125Zm-38.125-28.5c0.75-8,5.25-18.5,15.875-18.5,11.125,0,14.5,10.25,14.375,18.5h-30.25Zm152.5-.125c0-21.75-11.25-28.75-21.5-28.75-9.875,0-16.625,5-21.25,12.625h-0.25a18.714,18.714,0,0,0-18.25-12.625c-10.5,0-16.75,5.875-20.125,11.625h-0.375l-0.75-10.125h-12.5c0.25,5.875.5,11.625,0.5,19.375v49.5h14.25v-41.75c0-10.875,7.375-16.75,13.875-16.75,8.375,0,12,7.375,12,17v41.5h14.25v-42.5c0-10,6.75-16,13.375-16,8.75,0,12.5,7.625,12.5,19.125v39.375h14.25V114.966Z"/>
  <path id="日志服务" class="cls-1" d="M471.614,232.8H490.82v3.025h4.629c-0.229-2.659-.367-4.951-0.367-7.472V206.21a43.312,43.312,0,0,1,.367-6.417c-2.383.229-5.042,0.32-14.209,0.32s-11.506-.091-14.256-0.32a45.392,45.392,0,0,1,.413,6.417v21.5c0,2.933-.092,5.363-0.367,8.434h4.584V232.8Zm19.206-18.473H471.614V203.689H490.82v10.634ZM471.614,217.9H490.82V229.22H471.614V217.9Zm91.622,12.56a5.424,5.424,0,0,1-4.125-2.659c-0.5,4.171-1.375,5.134-3.117,5.409a35.494,35.494,0,0,1-8.709.275c-1.375-.183-1.7-0.871-1.7-2.933v-5.73a1.49,1.49,0,0,1,.6-1.467c0.688-.55.458-0.825-0.367-0.733a17.739,17.739,0,0,1-4.446-.367,25.45,25.45,0,0,1,.413,4.905v4.033c0,3.988.687,5.363,2.612,5.73a85.968,85.968,0,0,0,12.422,0C559.89,236.6,560.807,235.958,563.236,230.458Zm-25.256-7.517-4.263-1.376a24.946,24.946,0,0,1-4.125,12.01l4.9,1.558A56.222,56.222,0,0,1,537.98,222.941Zm34.1,6.875c-2.7-2.8-5.363-5.821-8.067-9.213l-3.484,2.154a35.082,35.082,0,0,1,7.151,10.039Zm-15.722-4.079a56.776,56.776,0,0,1-4.63-7.334l-3.529,1.65a27.857,27.857,0,0,1,3.988,7.7Zm-7.792-19.71v6.738c-5.363-.046-9.3-0.184-12.468-0.459v4.126c3.529-.23,8.342-0.367,14.989-0.367,6.784,0,11.413.137,15.034,0.367v-4.126c-3.346.321-7.563,0.459-13.568,0.459v-6.738c7.426,0,12.7.137,16.869,0.366v-4.125c-4.172.275-9.443,0.367-16.869,0.367v-3.9a2.683,2.683,0,0,1,.6-2.062c0.734-.55.6-0.825-0.183-0.825a34.86,34.86,0,0,1-4.584-.321,56.964,56.964,0,0,1,.184,7.1c-7.289,0-12.56-.092-16.685-0.367v4.125C535.917,206.164,541.28,206.072,548.569,206.027Zm58.757,16.593h6.509v8.846c0,1.421-1.192,2.063-4.905,1.742a6.633,6.633,0,0,1,1.6,4.034c5.5-.734,6.6-1.7,6.6-4.126V204.743a52.692,52.692,0,0,1,.275-5.867c-2.063.183-4.217,0.275-7.059,0.275a53.691,53.691,0,0,1-6.509-.275,42.629,42.629,0,0,1,.275,5.867v10.5c0,10.038-1.283,16.135-3.942,20.077a10.643,10.643,0,0,1,3.484,2.612C605.584,234.125,607.005,227.57,607.326,222.62Zm6.509-13.477h-6.463v-7.059h6.463v7.059Zm-6.463,2.705h6.463v7.93h-6.463v-7.93Zm20.9,5h5.913a26.174,26.174,0,0,1-3.255,9.488C629.282,223.72,628.594,220.74,628.274,216.844Zm-3.072,0c0.642,4.905,1.834,9.305,4.08,12.147a21.4,21.4,0,0,1-5.317,5,8.373,8.373,0,0,1,2.475,2.659,35.11,35.11,0,0,0,4.813-5.363,26.849,26.849,0,0,0,7.2,5.18,10.037,10.037,0,0,1,3.117-3.759A18.511,18.511,0,0,1,633,228.579c2.338-3.943,3.621-6.922,5.317-15.035a64.2,64.2,0,0,1-6.921.321h-7.7V202.176h10.038l-0.275,3.3c-0.137,1.742-1.237,2.888-5.546,1.971a10.07,10.07,0,0,1,1.375,4.034c5.317-.412,7.151-1.283,7.426-4.813l0.366-4.767c0.092-1.237.23-2.338,0.321-2.979-1.787.137-5.409,0.229-8.48,0.229-3.208,0-7.013-.092-8.709-0.229,0.138,1.054.275,4.125,0.275,5.821v22.369c0,3.758-.046,6.554-0.321,10.5h3.53V216.844H625.2Zm65.175,9.122h10.405l-0.321,4.263c-0.229,3.162-2.337,3.758-7.792,3.025a10.5,10.5,0,0,1,2.567,4.721c6.784-.458,8.846-1.971,9.259-7.7l0.55-8.021c-2.888.321-5.592,0.412-14.026,0.412,0.458-2.291,1.146-4.079,1.512-4.354,0.642-.5.55-0.642-0.045-0.642a20.637,20.637,0,0,1-5.043-.733,29.441,29.441,0,0,1-.183,5.729,106.153,106.153,0,0,1-11.093-.412v4.125a86.061,86.061,0,0,1,10.406-.412c-1.742,5.225-6.418,7.334-14.76,8.48a10.34,10.34,0,0,1,2.888,4.033C684.968,235.087,688.727,232.383,690.377,225.966Zm-5.5-25.211c1.375-2.017,2.062-2.613,2.75-2.75,0.779-.138.825-0.733-0.046-0.871a18.322,18.322,0,0,1-5.134-1.833c-1.558,6-5.317,11.963-9.351,14.713a6.046,6.046,0,0,1,3.851,2.063,59.511,59.511,0,0,0,5.454-7.242,27.65,27.65,0,0,0,6.1,7.1,54.555,54.555,0,0,1-18.885,5.546,8.06,8.06,0,0,1,1.742,3.713,57.629,57.629,0,0,0,20.076-7.151c4.492,2.842,10.314,4.767,18.106,6.051a12.176,12.176,0,0,1,1.742-4.492c-7.2-.6-12.33-1.559-16.547-3.622a33.011,33.011,0,0,0,10.221-11.734c-1.925.229-6.967,0.5-11.046,0.5h-9.03Zm6.646,9.305a28.483,28.483,0,0,1-6.234-6.371h13.155A48.5,48.5,0,0,1,691.523,210.06Z"/>
  <path id="直线左" class="cls-1" d="M290,222v-6H431v6H290Z"/>
  <path id="直线右" class="cls-1" d="M738,222v-6H878v6H738Z"/>
  <path id="多边形_1" data-name="多边形 1" class="cls-2" d="M220,220.646L68.932,244.573-0.506,108.293,107.647,0.14l136.28,69.438Z"/>
  <path id="L-2" data-name="L" class="cls-1" d="M93.481,75.687V177.542L80,188.578H181.957q-9.667-9.765-18.848-36.426-2.734,15.821-10.693,22.705t-23.486,6.885q-4.007,0-8.4-.391V78.812L130,69.144,128.637,67,118.09,77.64V181.351h-0.879l-3.516-.293h-0.781V76.664l13.77-13.379H80ZM190.746,186.82a143.879,143.879,0,0,1-15.625-26.66l-0.683-1.661-3.125-1.171,0.39,1.074A111.287,111.287,0,0,0,188.891,187.8l-2.832,6.153H82.738l2.441,2.636H187.133l4.394-8.789Z"/>
</svg>
